<svg width="40" height="40" viewBox="0 0 40 40" fill="none" xmlns="http://www.w3.org/2000/svg">
<circle cx="20" cy="20" r="20" fill="#B46E3E"/>
<path d="M9.01798 11.1555C12.9 15.5084 17.6163 16.3734 19.4892 16.2618L19.4506 15.5396C19.3676 13.99 20.012 12.4903 21.1931 11.4838C21.6427 11.1006 22.157 10.8005 22.7118 10.5975L22.7529 10.5824C24.4778 9.95137 26.4074 10.2726 27.8348 11.4284L28.4281 11.9089L31.4929 10.737C31.3567 11.6076 30.1875 12.9413 29.62 13.4994C29.8243 13.5664 31.4078 13.1367 32.174 12.9134C31.8334 13.9849 30.7551 14.755 30.1308 15.0899C30.1308 17.936 29.62 23.2097 24.4269 27.2278C17.4485 32.6272 10.6639 30.0181 7.82613 27.9811C11.0271 28.5838 13.9273 26.8929 14.9772 25.9721C12.1849 25.9721 10.749 23.6282 10.3801 22.4563H12.1679C8.89879 21.117 8.3653 18.5499 8.50718 17.4338C8.57529 17.7686 9.78417 17.9081 10.3801 17.936C7.65586 15.5921 8.33692 12.4391 9.01798 11.1555Z" fill="white"/>
</svg>
