<svg width="397" height="62" viewBox="0 0 397 62" fill="none" xmlns="http://www.w3.org/2000/svg">
<path d="M23.6517 21.2413C26.7686 21.119 33.1976 25.4754 27.3186 41.7761C23.285 52.9603 18.1513 58.3821 16.5012 59.0107C15.2177 59.4996 13.1276 58.974 15.0344 52.9603C17.4179 45.443 29.7022 23.8081 47.4868 15.3742C61.7145 8.627 62.5824 19.6523 61.2378 26.0083C59.4044 35.9701 53.0606 55.8205 42.3531 55.5271C28.9688 55.1604 52.9872 22.8914 65.2715 14.4574C77.5557 6.02347 80.1226 6.3993 83.6062 6.57348C87.0897 6.74767 88.5565 8.95698 89.1066 11.3405C89.4039 12.6288 90.39 19.9578 89.1066 23.4414C87.8231 26.925 74.4388 62.6776 63.8047 60.4775C53.1706 58.2773 67.8383 37.0091 77.9224 30.2253C85.9897 24.7982 92.1623 20.7523 94.2403 19.4078" stroke="#3E2014"/>
<path d="M20.3427 25.2252L16.7692 23.4768L23.6793 14.4506L26.3791 17.3403C26.3702 17.8271 25.9077 19.3819 24.1286 21.7058C22.3494 24.0298 20.8634 25.0204 20.3427 25.2252Z" fill="white" stroke="#3E2014" stroke-width="0.5"/>
<path d="M17.0595 24.3041L8.59845 19.0688L17.2917 7.71333L24.6536 14.3844C24.9362 15.2218 24.9417 17.6274 22.7035 20.5511C20.4652 23.4749 18.0082 24.2713 17.0595 24.3041Z" fill="white" stroke="#3E2014" stroke-width="0.5"/>
<path d="M8.81364 18.7877L2.91162 15.6389L12.4965 3.11876L17.1867 7.8506C17.2444 8.57954 16.7428 10.8433 14.275 14.0669C11.8072 17.2905 9.60583 18.5573 8.81364 18.7877Z" fill="white" stroke="#3E2014" stroke-width="0.5"/>
<path d="M11.9079 2.98289C12.0736 3.1098 12.1851 3.3726 12.17 3.8321C12.1552 4.28401 12.018 4.8697 11.7604 5.55441C11.2464 6.92074 10.2742 8.62656 8.96145 10.3414C7.64866 12.0562 6.25567 13.4399 5.07082 14.2926C4.47706 14.7199 3.94747 15.0052 3.51509 15.1375C3.07545 15.272 2.79266 15.2329 2.62689 15.106C2.46111 14.9791 2.34964 14.7163 2.36472 14.2568C2.37955 13.8049 2.51677 13.2192 2.77433 12.5345C3.2883 11.1682 4.26051 9.46235 5.5733 7.74754C6.88608 6.03274 8.27907 4.64905 9.46393 3.79631C10.0577 3.36899 10.5873 3.08368 11.0197 2.95143C11.4593 2.81695 11.7421 2.85598 11.9079 2.98289Z" fill="white" stroke="#3E2014" stroke-width="0.5"/>
<path d="M11.3255 2.53709C11.4913 2.664 11.6028 2.9268 11.5877 3.3863C11.5729 3.83821 11.4356 4.4239 11.1781 5.10861C10.6641 6.47494 9.69189 8.18076 8.37911 9.89557C7.06633 11.6104 5.67333 12.9941 4.48848 13.8468C3.89472 14.2741 3.36513 14.5594 2.93275 14.6917C2.49311 14.8262 2.21033 14.7871 2.04455 14.6602C1.87878 14.5333 1.7673 14.2705 1.78238 13.811C1.79722 13.3591 1.93443 12.7734 2.19199 12.0887C2.70597 10.7224 3.67818 9.01655 4.99096 7.30174C6.30375 5.58694 7.69674 4.20325 8.88159 3.35051C9.47535 2.92319 10.0049 2.63788 10.4373 2.50562C10.877 2.37115 11.1597 2.41018 11.3255 2.53709Z" fill="white" stroke="#3E2014" stroke-width="0.5"/>
<path d="M92.747 14.0061L96.167 11.9738L99.9346 22.6988L96.0382 23.3751C95.6357 23.101 94.5882 21.8625 93.6182 19.1012C92.6481 16.3398 92.6332 14.5539 92.747 14.0061Z" fill="white" stroke="#3E2014" stroke-width="0.5"/>
<path d="M95.3157 11.7635L104.33 7.55151L109.07 21.0442L99.4562 23.5503C98.6009 23.3281 96.585 22.0152 95.3646 18.5412C94.1442 15.0672 94.8235 12.5752 95.3157 11.7635Z" fill="white" stroke="#3E2014" stroke-width="0.5"/>
<path d="M104.447 7.88561L110.314 4.672L115.54 19.5486L109.013 20.8813C108.371 20.5303 106.752 18.8709 105.406 15.0406C104.061 11.2103 104.206 8.67464 104.447 7.88561Z" fill="white" stroke="#3E2014" stroke-width="0.5"/>
<path d="M115.976 19.1303C115.779 19.1995 115.498 19.1488 115.122 18.8846C114.752 18.6246 114.337 18.1891 113.906 17.5986C113.044 16.4202 112.149 14.6725 111.433 12.635C110.718 10.5974 110.323 8.67411 110.258 7.21574C110.226 6.48491 110.277 5.88555 110.403 5.45135C110.532 5.00986 110.719 4.79463 110.916 4.72543C111.113 4.65624 111.394 4.7069 111.77 4.97118C112.14 5.23109 112.555 5.66667 112.987 6.25716C113.849 7.43551 114.743 9.18319 115.459 11.2207C116.175 13.2583 116.57 15.1816 116.634 16.64C116.667 17.3708 116.615 17.9702 116.489 18.4044C116.361 18.8459 116.173 19.0611 115.976 19.1303Z" fill="white" stroke="#3E2014" stroke-width="0.5"/>
<path d="M116.668 18.8873C116.471 18.9565 116.19 18.9059 115.814 18.6416C115.444 18.3817 115.029 17.9461 114.598 17.3556C113.736 16.1772 112.841 14.4296 112.125 12.392C111.41 10.3545 111.015 8.43113 110.95 6.97276C110.918 6.24193 110.969 5.64257 111.095 5.20837C111.224 4.76688 111.411 4.55165 111.608 4.48245C111.805 4.41326 112.086 4.46392 112.462 4.72819C112.832 4.98811 113.247 5.42368 113.679 6.01418C114.541 7.19253 115.435 8.94021 116.151 10.9778C116.867 13.0153 117.262 14.9386 117.326 16.397C117.359 17.1278 117.307 17.7272 117.181 18.1614C117.053 18.6029 116.865 18.8181 116.668 18.8873Z" fill="white" stroke="#3E2014" stroke-width="0.5"/>
<path d="M133.783 47.074C132.522 47.074 131.891 46.429 131.891 45.139C131.891 44.3077 132.077 43.3617 132.45 42.301C132.851 41.2403 133.31 40.194 133.826 39.162C134.371 38.1013 134.829 37.227 135.202 36.539C134.657 36.3383 134.156 36.0373 133.697 35.636C133.238 35.2347 133.009 34.7187 133.009 34.088C133.009 33.2567 133.296 32.4827 133.869 31.766C134.442 31.0493 135.159 30.4043 136.019 29.831C136.879 29.2577 137.753 28.7703 138.642 28.369C139.559 27.939 140.348 27.595 141.007 27.337C141.924 25.9897 142.856 24.6423 143.802 23.295C144.748 21.9477 145.737 20.629 146.769 19.339C146.74 19.1097 146.826 18.8373 147.027 18.522C147.228 18.2067 147.457 17.9057 147.715 17.619C148.002 17.3037 148.202 17.06 148.317 16.888C148.059 16.8593 147.801 16.845 147.543 16.845C147.285 16.845 147.013 16.845 146.726 16.845C144.805 16.845 142.856 17.0313 140.878 17.404C138.929 17.748 137.051 18.2497 135.245 18.909C134.7 19.1097 134.084 19.3677 133.396 19.683C132.708 19.9983 132.049 20.3853 131.418 20.844C130.787 21.3027 130.257 21.8187 129.827 22.392C129.426 22.9653 129.225 23.596 129.225 24.284C129.225 25.0007 129.44 25.617 129.87 26.133C130.3 26.649 130.83 27.079 131.461 27.423C132.092 27.767 132.679 28.0537 133.224 28.283C133.281 28.3117 133.353 28.3547 133.439 28.412C133.554 28.4407 133.611 28.498 133.611 28.584C133.611 28.67 133.511 28.7273 133.31 28.756C133.109 28.7847 132.98 28.799 132.923 28.799C132.78 28.799 132.679 28.7847 132.622 28.756C132.106 28.6127 131.504 28.412 130.816 28.154C130.128 27.8673 129.454 27.5233 128.795 27.122C128.136 26.7207 127.591 26.262 127.161 25.746C126.731 25.2013 126.516 24.5993 126.516 23.94C126.516 23.2233 126.76 22.564 127.247 21.962C127.763 21.36 128.394 20.8153 129.139 20.328C129.884 19.8407 130.644 19.4393 131.418 19.124C132.192 18.78 132.851 18.5077 133.396 18.307C135.374 17.619 137.395 17.0887 139.459 16.716C141.552 16.3147 143.644 16.114 145.737 16.114C146.253 16.114 146.769 16.1283 147.285 16.157C147.801 16.1857 148.303 16.2287 148.79 16.286C148.905 16.1427 149.005 15.9993 149.091 15.856C149.206 15.684 149.32 15.5407 149.435 15.426C149.664 15.1967 150.023 15.0247 150.51 14.91C150.997 14.7953 151.384 14.738 151.671 14.738C151.786 14.738 151.958 14.7667 152.187 14.824C152.445 14.8527 152.574 14.953 152.574 15.125C152.574 15.1823 152.488 15.3257 152.316 15.555C152.144 15.7843 151.958 16.0137 151.757 16.243C151.556 16.4437 151.413 16.587 151.327 16.673C152.244 16.845 153.233 17.1173 154.294 17.49C155.355 17.8627 156.358 18.35 157.304 18.952C158.279 19.5253 159.067 20.242 159.669 21.102C160.271 21.962 160.572 22.951 160.572 24.069C160.572 25.273 160.214 26.4197 159.497 27.509C158.809 28.5697 157.963 29.5443 156.96 30.433C155.957 31.293 154.996 32.0383 154.079 32.669C152.818 33.5003 151.356 34.26 149.693 34.948C148.059 35.636 146.382 36.195 144.662 36.625C142.942 37.0263 141.322 37.227 139.803 37.227C139.344 37.227 138.9 37.2127 138.47 37.184C138.04 37.1267 137.61 37.0693 137.18 37.012C136.865 37.6713 136.492 38.4883 136.062 39.463C135.661 40.4377 135.302 41.4123 134.987 42.387C134.7 43.3903 134.557 44.2647 134.557 45.01C134.557 45.268 134.6 45.5403 134.686 45.827C134.772 46.1137 134.973 46.257 135.288 46.257C135.517 46.257 135.761 46.214 136.019 46.128C136.277 46.0707 136.521 46.042 136.75 46.042C136.779 46.042 136.836 46.042 136.922 46.042C137.008 46.042 137.051 46.0707 137.051 46.128C137.051 46.2427 136.807 46.3717 136.32 46.515C135.861 46.687 135.36 46.816 134.815 46.902C134.299 47.0167 133.955 47.074 133.783 47.074ZM139.674 36.625C140.649 36.625 141.781 36.453 143.071 36.109C144.39 35.7363 145.78 35.2347 147.242 34.604C148.704 33.9447 150.123 33.185 151.499 32.325C152.904 31.465 154.165 30.5333 155.283 29.53C156.43 28.5267 157.333 27.4803 157.992 26.391C158.68 25.3017 159.024 24.2267 159.024 23.166C159.024 22.1913 158.752 21.36 158.207 20.672C157.662 19.9553 156.96 19.3677 156.1 18.909C155.269 18.4217 154.38 18.0347 153.434 17.748C152.517 17.4613 151.671 17.2607 150.897 17.146C148.288 20.1847 145.852 23.3093 143.587 26.52C143.874 26.434 144.275 26.3193 144.791 26.176C145.336 26.0327 145.88 25.9037 146.425 25.789C146.97 25.6457 147.371 25.574 147.629 25.574C147.744 25.574 147.801 25.6027 147.801 25.66C147.801 25.7747 147.744 25.875 147.629 25.961C147.514 26.0183 147.428 26.0613 147.371 26.09C147.142 26.1473 146.898 26.2047 146.64 26.262C146.382 26.3193 146.138 26.3767 145.909 26.434C145.422 26.5487 144.934 26.6777 144.447 26.821C143.988 26.9643 143.53 27.1077 143.071 27.251C142.039 28.713 141.05 30.2037 140.104 31.723C139.187 33.2137 138.312 34.7617 137.481 36.367C138.226 36.539 138.957 36.625 139.674 36.625ZM135.718 35.636C136.463 34.3747 137.209 33.142 137.954 31.938C138.728 30.734 139.516 29.5443 140.319 28.369C139.86 28.5697 139.316 28.8707 138.685 29.272C138.054 29.6447 137.424 30.0747 136.793 30.562C136.191 31.0493 135.675 31.5797 135.245 32.153C134.844 32.6977 134.643 33.2567 134.643 33.83C134.643 34.2027 134.743 34.5467 134.944 34.862C135.173 35.1487 135.431 35.4067 135.718 35.636ZM156.096 42.989C155.981 42.989 155.723 42.9603 155.322 42.903C154.92 42.8743 154.72 42.7453 154.72 42.516C154.72 42.3727 154.82 42.215 155.021 42.043C155.25 41.8997 155.422 41.785 155.537 41.699C156.339 41.2403 157.343 40.9107 158.547 40.71C159.751 40.4807 160.797 40.323 161.686 40.237C161.743 40.1223 161.772 40.0077 161.772 39.893C161.772 39.4343 161.557 39.0187 161.127 38.646C160.697 38.2733 160.195 37.9007 159.622 37.528C159.077 37.1553 158.59 36.7397 158.16 36.281C157.73 35.7937 157.515 35.2347 157.515 34.604C157.515 34.432 157.543 34.2743 157.601 34.131C157.658 33.959 157.715 33.8013 157.773 33.658C158.432 32.4253 159.321 31.4937 160.439 30.863C161.585 30.2323 162.818 29.7737 164.137 29.487C164.251 29.4297 164.366 29.401 164.481 29.401C164.595 29.401 164.71 29.401 164.825 29.401C165.226 29.401 165.556 29.5157 165.814 29.745C166.1 29.9457 166.244 30.261 166.244 30.691C166.244 31.2357 166.043 31.766 165.642 32.282C165.24 32.7693 164.782 33.0847 164.266 33.228H164.137C164.108 33.228 164.094 33.1993 164.094 33.142C164.094 32.9127 164.137 32.6833 164.223 32.454C164.337 32.2247 164.395 31.9953 164.395 31.766C164.395 31.3647 164.237 31.0923 163.922 30.949C163.635 30.777 163.305 30.691 162.933 30.691C162.13 30.691 161.356 30.949 160.611 31.465C159.894 31.9523 159.536 32.626 159.536 33.486C159.536 34.174 159.722 34.733 160.095 35.163C160.496 35.593 160.94 35.9657 161.428 36.281C161.915 36.5963 162.345 36.9403 162.718 37.313C163.119 37.657 163.32 38.1157 163.32 38.689C163.32 38.9757 163.248 39.248 163.105 39.506C162.99 39.764 162.861 40.0077 162.718 40.237C162.976 40.2083 163.219 40.194 163.449 40.194C163.707 40.1653 163.965 40.151 164.223 40.151C164.395 40.151 164.481 40.194 164.481 40.28C164.481 40.3947 164.423 40.4807 164.309 40.538C164.194 40.5953 164.094 40.6383 164.008 40.667C163.721 40.6957 163.434 40.7387 163.148 40.796C162.861 40.8533 162.56 40.9107 162.245 40.968C161.442 41.7133 160.482 42.2293 159.364 42.516C158.274 42.8313 157.185 42.989 156.096 42.989ZM170.482 28.068C170.396 28.068 170.338 27.9677 170.31 27.767C170.31 27.5377 170.31 27.3943 170.31 27.337C170.31 27.251 170.324 27.0647 170.353 26.778C170.381 26.4913 170.467 26.3337 170.611 26.305C171.012 26.2477 171.413 26.176 171.815 26.09C172.216 26.004 172.617 25.9037 173.019 25.789C173.076 25.7603 173.162 25.746 173.277 25.746C173.42 25.746 173.492 25.8177 173.492 25.961C173.492 26.2763 173.291 26.606 172.89 26.95C172.517 27.2653 172.087 27.5377 171.6 27.767C171.141 27.9677 170.768 28.068 170.482 28.068ZM166.999 42C165.594 42 164.892 41.2833 164.892 39.85C164.892 39.248 164.978 38.6317 165.15 38.001C165.35 37.3703 165.565 36.7827 165.795 36.238C166.053 35.6073 166.339 34.991 166.655 34.389C166.97 33.787 167.285 33.185 167.601 32.583C167.744 32.325 167.873 32.067 167.988 31.809C168.131 31.5223 168.274 31.25 168.418 30.992C168.561 30.7913 168.833 30.6193 169.235 30.476C169.636 30.3327 169.951 30.261 170.181 30.261C170.209 30.261 170.209 30.2753 170.181 30.304C170.152 30.304 170.138 30.304 170.138 30.304C170.166 30.304 170.181 30.3183 170.181 30.347C170.238 30.2897 170.31 30.261 170.396 30.261C170.51 30.261 170.582 30.3183 170.611 30.433C170.639 30.519 170.654 30.605 170.654 30.691C170.654 30.8917 170.568 31.1927 170.396 31.594C170.252 31.9953 170.066 32.3823 169.837 32.755C169.636 33.099 169.435 33.314 169.235 33.4C168.977 34.002 168.633 34.6613 168.203 35.378C167.801 36.0947 167.429 36.8257 167.085 37.571C166.741 38.2877 166.569 38.99 166.569 39.678C166.569 40.4807 166.999 40.882 167.859 40.882C168.26 40.882 168.69 40.753 169.149 40.495C169.636 40.237 170.109 39.936 170.568 39.592C171.026 39.2193 171.413 38.904 171.729 38.646C172.073 38.388 172.288 38.259 172.374 38.259C172.402 38.259 172.417 38.2733 172.417 38.302C172.417 38.4167 172.374 38.5457 172.288 38.689C172.202 38.8037 172.13 38.8897 172.073 38.947C171.729 39.4057 171.27 39.8787 170.697 40.366C170.123 40.8247 169.507 41.2117 168.848 41.527C168.217 41.8423 167.601 42 166.999 42ZM172.615 42.301C171.984 42.301 171.568 42.2007 171.368 42C171.167 41.7993 171.067 41.3837 171.067 40.753C171.067 40.2083 171.124 39.7497 171.239 39.377C171.468 38.603 171.769 37.7573 172.142 36.84C172.543 35.894 173.016 34.9767 173.561 34.088C174.105 33.1993 174.722 32.4253 175.41 31.766C176.126 31.1067 176.9 30.648 177.732 30.39C178.305 30.218 178.864 30.0173 179.409 29.788C179.953 29.53 180.527 29.401 181.129 29.401C181.559 29.401 181.917 29.53 182.204 29.788C182.519 30.046 182.677 30.4043 182.677 30.863C182.677 31.207 182.576 31.594 182.376 32.024C182.175 32.454 181.903 32.8267 181.559 33.142C181.243 33.4287 180.885 33.572 180.484 33.572C180.369 33.572 180.312 33.529 180.312 33.443C180.312 33.357 180.34 33.2853 180.398 33.228C180.541 32.97 180.627 32.6977 180.656 32.411C180.713 32.0957 180.742 31.7947 180.742 31.508C180.742 31.2213 180.699 30.949 180.613 30.691C180.555 30.4043 180.355 30.261 180.011 30.261C179.724 30.261 179.437 30.347 179.151 30.519C178.864 30.6623 178.606 30.8057 178.377 30.949C177.975 31.2357 177.488 31.766 176.915 32.54C176.37 33.2853 175.84 34.131 175.324 35.077C174.808 35.9943 174.378 36.883 174.034 37.743C173.69 38.603 173.518 39.291 173.518 39.807C173.518 40.8103 174.034 41.312 175.066 41.312C175.811 41.312 176.528 41.1113 177.216 40.71C177.932 40.3087 178.577 39.8357 179.151 39.291C179.753 38.7463 180.24 38.2733 180.613 37.872C180.985 37.4707 181.2 37.27 181.258 37.27C181.372 37.27 181.43 37.3273 181.43 37.442C181.43 37.786 181.215 38.1873 180.785 38.646C180.383 39.1047 180.068 39.4487 179.839 39.678C178.807 40.452 177.66 41.0827 176.399 41.57C175.166 42.0573 173.905 42.301 172.615 42.301ZM183.167 42.344C182.536 42.344 182.034 42.2293 181.662 42C181.318 41.742 181.146 41.2547 181.146 40.538C181.146 39.6493 181.375 38.6603 181.834 37.571C182.321 36.4817 182.894 35.4353 183.554 34.432C184.213 33.4 184.829 32.5543 185.403 31.895V31.809C185.403 31.121 185.675 30.562 186.22 30.132C186.793 29.6733 187.452 29.3437 188.198 29.143C188.943 28.9137 189.588 28.799 190.133 28.799C190.878 28.799 191.494 28.971 191.982 29.315C192.498 29.659 192.756 30.2467 192.756 31.078C192.756 31.7947 192.569 32.626 192.197 33.572C191.824 34.4893 191.337 35.4353 190.735 36.41C190.161 37.356 189.545 38.2303 188.886 39.033C188.226 39.807 187.624 40.4233 187.08 40.882C187.51 41.398 188.069 41.656 188.757 41.656C188.814 41.656 188.886 41.6703 188.972 41.699C189.058 41.7277 189.101 41.7707 189.101 41.828C189.101 41.9427 189.043 42.0143 188.929 42.043C188.843 42.0717 188.757 42.086 188.671 42.086C188.298 42.086 187.94 42 187.596 41.828C187.28 41.6273 186.994 41.3837 186.736 41.097C185.675 41.9283 184.485 42.344 183.167 42.344ZM186.693 40.323C187.323 39.721 187.94 38.8897 188.542 37.829C189.172 36.7397 189.703 35.6217 190.133 34.475C190.563 33.2997 190.778 32.282 190.778 31.422C190.778 31.078 190.706 30.7197 190.563 30.347C190.419 29.9743 190.118 29.788 189.66 29.788C189.316 29.788 188.986 29.917 188.671 30.175C188.355 30.433 188.126 30.7197 187.983 31.035C188.04 31.121 188.097 31.2357 188.155 31.379C188.241 31.5223 188.284 31.6513 188.284 31.766C188.284 31.8807 188.255 31.9523 188.198 31.981C187.825 32.1817 187.467 32.411 187.123 32.669C186.807 32.8983 186.492 33.1707 186.177 33.486C186.062 33.916 185.976 34.3603 185.919 34.819C185.861 35.2777 185.833 35.7363 185.833 36.195C185.833 36.8543 185.89 37.5567 186.005 38.302C186.148 39.0473 186.377 39.721 186.693 40.323ZM184.887 41.269C185.173 41.269 185.431 41.2117 185.661 41.097C185.919 40.9537 186.148 40.796 186.349 40.624C185.89 39.9073 185.56 39.076 185.36 38.13C185.159 37.184 185.059 36.2953 185.059 35.464C184.686 36.066 184.342 36.6967 184.027 37.356C183.711 37.9867 183.554 38.6747 183.554 39.42C183.554 39.85 183.64 40.2657 183.812 40.667C184.012 41.0683 184.371 41.269 184.887 41.269ZM193.611 42.086C192.808 42.086 192.407 41.6703 192.407 40.839C192.407 40.4663 192.464 40.065 192.579 39.635C192.722 39.205 192.851 38.818 192.966 38.474C193.74 36.4673 194.686 34.3747 195.804 32.196C196.922 29.9887 198.111 27.8387 199.373 25.746C200.634 23.6247 201.867 21.6753 203.071 19.898C203.013 19.6687 202.985 19.468 202.985 19.296C202.985 19.1527 202.999 19.038 203.028 18.952C203.114 18.8373 203.271 18.5937 203.501 18.221C203.73 17.8483 203.959 17.49 204.189 17.146C204.447 16.7733 204.604 16.5583 204.662 16.501C204.805 16.329 205.077 16.2 205.479 16.114C205.909 16.028 206.238 15.985 206.468 15.985C206.611 15.985 206.826 16.0137 207.113 16.071C207.428 16.0997 207.586 16.2143 207.586 16.415C207.586 16.501 207.571 16.544 207.543 16.544C207.084 17.2033 206.611 17.877 206.124 18.565C205.665 19.2243 205.206 19.8837 204.748 20.543C203.085 23.037 201.523 25.5883 200.061 28.197C198.627 30.777 197.251 33.4 195.933 36.066C195.675 36.5533 195.388 37.1697 195.073 37.915C194.786 38.6603 194.643 39.3053 194.643 39.85C194.643 40.3947 194.858 40.667 195.288 40.667C195.66 40.667 196.076 40.538 196.535 40.28C196.993 40.022 197.423 39.7353 197.825 39.42C198.255 39.076 198.613 38.775 198.9 38.517C199.215 38.259 199.416 38.13 199.502 38.13C199.559 38.13 199.588 38.1873 199.588 38.302C199.588 38.4167 199.53 38.5743 199.416 38.775C199.33 38.947 199.244 39.0903 199.158 39.205C198.642 39.807 197.911 40.3803 196.965 40.925C196.019 41.4697 195.173 41.828 194.428 42C194.313 42.0287 194.184 42.043 194.041 42.043C193.897 42.0717 193.754 42.086 193.611 42.086ZM201.727 42.344C201.097 42.344 200.595 42.2293 200.222 42C199.878 41.742 199.706 41.2547 199.706 40.538C199.706 39.6493 199.936 38.6603 200.394 37.571C200.882 36.4817 201.455 35.4353 202.114 34.432C202.774 33.4 203.39 32.5543 203.963 31.895V31.809C203.963 31.121 204.236 30.562 204.78 30.132C205.354 29.6733 206.013 29.3437 206.758 29.143C207.504 28.9137 208.149 28.799 208.693 28.799C209.439 28.799 210.055 28.971 210.542 29.315C211.058 29.659 211.316 30.2467 211.316 31.078C211.316 31.7947 211.13 32.626 210.757 33.572C210.385 34.4893 209.897 35.4353 209.295 36.41C208.722 37.356 208.106 38.2303 207.446 39.033C206.787 39.807 206.185 40.4233 205.64 40.882C206.07 41.398 206.629 41.656 207.317 41.656C207.375 41.656 207.446 41.6703 207.532 41.699C207.618 41.7277 207.661 41.7707 207.661 41.828C207.661 41.9427 207.604 42.0143 207.489 42.043C207.403 42.0717 207.317 42.086 207.231 42.086C206.859 42.086 206.5 42 206.156 41.828C205.841 41.6273 205.554 41.3837 205.296 41.097C204.236 41.9283 203.046 42.344 201.727 42.344ZM205.253 40.323C205.884 39.721 206.5 38.8897 207.102 37.829C207.733 36.7397 208.263 35.6217 208.693 34.475C209.123 33.2997 209.338 32.282 209.338 31.422C209.338 31.078 209.267 30.7197 209.123 30.347C208.98 29.9743 208.679 29.788 208.22 29.788C207.876 29.788 207.547 29.917 207.231 30.175C206.916 30.433 206.687 30.7197 206.543 31.035C206.601 31.121 206.658 31.2357 206.715 31.379C206.801 31.5223 206.844 31.6513 206.844 31.766C206.844 31.8807 206.816 31.9523 206.758 31.981C206.386 32.1817 206.027 32.411 205.683 32.669C205.368 32.8983 205.053 33.1707 204.737 33.486C204.623 33.916 204.537 34.3603 204.479 34.819C204.422 35.2777 204.393 35.7363 204.393 36.195C204.393 36.8543 204.451 37.5567 204.565 38.302C204.709 39.0473 204.938 39.721 205.253 40.323ZM203.447 41.269C203.734 41.269 203.992 41.2117 204.221 41.097C204.479 40.9537 204.709 40.796 204.909 40.624C204.451 39.9073 204.121 39.076 203.92 38.13C203.72 37.184 203.619 36.2953 203.619 35.464C203.247 36.066 202.903 36.6967 202.587 37.356C202.272 37.9867 202.114 38.6747 202.114 39.42C202.114 39.85 202.2 40.2657 202.372 40.667C202.573 41.0683 202.931 41.269 203.447 41.269ZM203.958 56.362C203.184 56.362 202.382 56.2187 201.55 55.932C200.719 55.674 200.017 55.244 199.443 54.642C198.87 54.0687 198.583 53.3233 198.583 52.406C198.583 51.5747 198.827 50.815 199.314 50.127C199.773 49.439 200.375 48.8083 201.12 48.235C201.837 47.6903 202.597 47.203 203.399 46.773C204.202 46.343 204.919 45.999 205.549 45.741C207.155 45.0817 208.903 44.58 210.795 44.236C212.716 43.892 214.536 43.6627 216.256 43.548C216.572 42.7453 216.873 41.9427 217.159 41.14C217.475 40.3373 217.776 39.5347 218.062 38.732C218.292 38.1587 218.507 37.5853 218.707 37.012C218.908 36.4387 219.08 35.8653 219.223 35.292C218.937 35.7793 218.478 36.41 217.847 37.184C217.217 37.958 216.514 38.7463 215.74 39.549C214.966 40.323 214.178 40.9823 213.375 41.527C212.601 42.043 211.913 42.301 211.311 42.301C210.967 42.301 210.738 42.1863 210.623 41.957C210.537 41.7277 210.494 41.4697 210.494 41.183C210.494 40.581 210.638 39.8213 210.924 38.904C211.211 37.9867 211.598 37.0263 212.085 36.023C212.601 34.991 213.175 34.045 213.805 33.185C214.465 32.325 215.153 31.637 215.869 31.121C216.586 30.5763 217.288 30.3327 217.976 30.39C218.32 30.218 218.664 30.0603 219.008 29.917C219.381 29.7737 219.754 29.702 220.126 29.702C220.356 29.702 220.585 29.7163 220.814 29.745C221.072 29.7737 221.316 29.8023 221.545 29.831L221.588 29.702C222.076 29.272 222.649 29.057 223.308 29.057C223.394 29.057 223.509 29.0857 223.652 29.143C223.824 29.1717 223.91 29.2577 223.91 29.401C223.91 29.4297 223.896 29.4583 223.867 29.487L223.351 30.39C222.979 31.078 222.635 31.7947 222.319 32.54C222.004 33.2853 221.689 34.0307 221.373 34.776C220.8 36.2093 220.227 37.657 219.653 39.119C219.08 40.581 218.507 42.043 217.933 43.505C218.134 43.4763 218.32 43.462 218.492 43.462C218.693 43.462 218.894 43.462 219.094 43.462C219.18 43.462 219.367 43.4907 219.653 43.548C219.969 43.634 220.126 43.7487 220.126 43.892C220.126 43.978 219.94 44.0353 219.567 44.064C219.195 44.0927 218.822 44.0927 218.449 44.064C218.077 44.064 217.876 44.064 217.847 44.064H217.718C217.145 45.44 216.414 46.8447 215.525 48.278C214.665 49.74 213.648 51.073 212.472 52.277C211.326 53.5097 210.05 54.4987 208.645 55.244C207.212 55.9893 205.65 56.362 203.958 56.362ZM212.816 40.839C212.96 40.839 213.132 40.7817 213.332 40.667C213.533 40.5237 213.691 40.409 213.805 40.323C215.525 39.0903 216.858 37.6713 217.804 36.066C218.779 34.4607 219.739 32.7407 220.685 30.906C220.571 30.8487 220.427 30.8057 220.255 30.777C220.112 30.7483 219.969 30.734 219.825 30.734C219.309 30.734 218.779 30.8773 218.234 31.164C217.718 31.4507 217.288 31.7947 216.944 32.196C216.4 32.7693 215.841 33.529 215.267 34.475C214.723 35.3923 214.221 36.3527 213.762 37.356C213.304 38.3307 212.96 39.205 212.73 39.979C212.644 40.151 212.601 40.3373 212.601 40.538C212.601 40.7387 212.673 40.839 212.816 40.839ZM203.786 55.459C205.191 55.459 206.524 55.072 207.785 54.298C209.018 53.5527 210.15 52.5923 211.182 51.417C212.243 50.2417 213.175 48.9947 213.977 47.676C214.809 46.386 215.482 45.1963 215.998 44.107C214.364 44.2217 212.63 44.4653 210.795 44.838C208.989 45.2393 207.355 45.8127 205.893 46.558C205.205 46.902 204.431 47.375 203.571 47.977C202.683 48.579 201.923 49.267 201.292 50.041C200.633 50.8437 200.303 51.7037 200.303 52.621C200.303 53.5957 200.676 54.3123 201.421 54.771C202.138 55.2297 202.926 55.459 203.786 55.459ZM227.213 28.068C227.127 28.068 227.07 27.9677 227.041 27.767C227.041 27.5377 227.041 27.3943 227.041 27.337C227.041 27.251 227.056 27.0647 227.084 26.778C227.113 26.4913 227.199 26.3337 227.342 26.305C227.744 26.2477 228.145 26.176 228.546 26.09C228.948 26.004 229.349 25.9037 229.75 25.789C229.808 25.7603 229.894 25.746 230.008 25.746C230.152 25.746 230.223 25.8177 230.223 25.961C230.223 26.2763 230.023 26.606 229.621 26.95C229.249 27.2653 228.819 27.5377 228.331 27.767C227.873 27.9677 227.5 28.068 227.213 28.068ZM223.73 42C222.326 42 221.623 41.2833 221.623 39.85C221.623 39.248 221.709 38.6317 221.881 38.001C222.082 37.3703 222.297 36.7827 222.526 36.238C222.784 35.6073 223.071 34.991 223.386 34.389C223.702 33.787 224.017 33.185 224.332 32.583C224.476 32.325 224.605 32.067 224.719 31.809C224.863 31.5223 225.006 31.25 225.149 30.992C225.293 30.7913 225.565 30.6193 225.966 30.476C226.368 30.3327 226.683 30.261 226.912 30.261C226.941 30.261 226.941 30.2753 226.912 30.304C226.884 30.304 226.869 30.304 226.869 30.304C226.898 30.304 226.912 30.3183 226.912 30.347C226.97 30.2897 227.041 30.261 227.127 30.261C227.242 30.261 227.314 30.3183 227.342 30.433C227.371 30.519 227.385 30.605 227.385 30.691C227.385 30.8917 227.299 31.1927 227.127 31.594C226.984 31.9953 226.798 32.3823 226.568 32.755C226.368 33.099 226.167 33.314 225.966 33.4C225.708 34.002 225.364 34.6613 224.934 35.378C224.533 36.0947 224.16 36.8257 223.816 37.571C223.472 38.2877 223.3 38.99 223.3 39.678C223.3 40.4807 223.73 40.882 224.59 40.882C224.992 40.882 225.422 40.753 225.88 40.495C226.368 40.237 226.841 39.936 227.299 39.592C227.758 39.2193 228.145 38.904 228.46 38.646C228.804 38.388 229.019 38.259 229.105 38.259C229.134 38.259 229.148 38.2733 229.148 38.302C229.148 38.4167 229.105 38.5457 229.019 38.689C228.933 38.8037 228.862 38.8897 228.804 38.947C228.46 39.4057 228.002 39.8787 227.428 40.366C226.855 40.8247 226.239 41.2117 225.579 41.527C224.949 41.8423 224.332 42 223.73 42ZM237.645 42.344C236.871 42.344 236.355 42.043 236.097 41.441C235.839 40.8103 235.71 40.1797 235.71 39.549C235.71 38.8323 235.767 38.1157 235.882 37.399C235.997 36.6823 236.126 35.98 236.269 35.292C235.982 35.7793 235.524 36.41 234.893 37.184C234.262 37.958 233.56 38.7463 232.786 39.549C232.012 40.323 231.224 40.9823 230.421 41.527C229.647 42.043 228.959 42.301 228.357 42.301C228.013 42.301 227.784 42.1863 227.669 41.957C227.583 41.7277 227.54 41.4697 227.54 41.183C227.54 40.581 227.683 39.8213 227.97 38.904C228.257 37.9867 228.658 37.0263 229.174 36.023C229.69 34.991 230.263 34.045 230.894 33.185C231.553 32.325 232.227 31.637 232.915 31.121C233.632 30.5763 234.348 30.3327 235.065 30.39C235.38 30.218 235.724 30.0603 236.097 29.917C236.47 29.7737 236.842 29.702 237.215 29.702C237.502 29.702 237.788 29.7307 238.075 29.788C238.39 29.8167 238.691 29.8597 238.978 29.917C239.121 29.8597 239.279 29.8023 239.451 29.745C239.623 29.6877 239.795 29.659 239.967 29.659C240.282 29.659 240.44 29.8023 240.44 30.089C240.44 30.2323 240.354 30.519 240.182 30.949C240.039 31.3503 239.867 31.7373 239.666 32.11C239.494 32.454 239.351 32.6547 239.236 32.712C238.978 33.228 238.734 33.9017 238.505 34.733C238.276 35.5357 238.089 36.367 237.946 37.227C237.803 38.087 237.731 38.818 237.731 39.42C237.731 39.7353 237.774 40.0937 237.86 40.495C237.975 40.8677 238.247 41.054 238.677 41.054C239.164 41.054 239.652 40.8677 240.139 40.495C240.655 40.0937 241.099 39.7067 241.472 39.334C241.845 38.9327 242.06 38.732 242.117 38.732C242.174 38.732 242.203 38.7607 242.203 38.818C242.203 39.076 242.06 39.377 241.773 39.721C241.486 40.065 241.171 40.3947 240.827 40.71C240.483 40.9967 240.225 41.2117 240.053 41.355C239.709 41.613 239.322 41.8423 238.892 42.043C238.491 42.2437 238.075 42.344 237.645 42.344ZM229.862 40.839C230.005 40.839 230.177 40.7817 230.378 40.667C230.579 40.5237 230.736 40.409 230.851 40.323C232.571 39.0903 233.918 37.6713 234.893 36.066C235.868 34.4607 236.814 32.7407 237.731 30.906C237.616 30.8487 237.487 30.8057 237.344 30.777C237.201 30.7483 237.057 30.734 236.914 30.734C236.369 30.734 235.825 30.8773 235.28 31.164C234.764 31.4507 234.334 31.7947 233.99 32.196C233.445 32.7693 232.886 33.529 232.313 34.475C231.768 35.3923 231.267 36.3527 230.808 37.356C230.349 38.3307 230.005 39.205 229.776 39.979C229.747 40.065 229.719 40.151 229.69 40.237C229.661 40.323 229.647 40.4233 229.647 40.538C229.647 40.7387 229.719 40.839 229.862 40.839ZM247.69 56.362C246.916 56.362 246.114 56.2187 245.282 55.932C244.451 55.674 243.749 55.244 243.175 54.642C242.602 54.0687 242.315 53.3233 242.315 52.406C242.315 51.5747 242.559 50.815 243.046 50.127C243.505 49.439 244.107 48.8083 244.852 48.235C245.569 47.6903 246.329 47.203 247.131 46.773C247.934 46.343 248.651 45.999 249.281 45.741C250.887 45.0817 252.635 44.58 254.527 44.236C256.448 43.892 258.268 43.6627 259.988 43.548C260.504 42.2293 261.02 40.9107 261.536 39.592C262.081 38.2733 262.497 36.9117 262.783 35.507L262.955 34.69C262.583 35.1773 262.067 35.8367 261.407 36.668C260.777 37.4993 260.074 38.345 259.3 39.205C258.555 40.065 257.795 40.796 257.021 41.398C256.247 41.9713 255.559 42.258 254.957 42.258C254.47 42.258 254.14 42.0573 253.968 41.656C253.796 41.226 253.71 40.8103 253.71 40.409C253.71 39.3197 253.954 38.2877 254.441 37.313C254.929 36.3097 255.416 35.3493 255.903 34.432L255.774 34.475C255.602 34.475 255.516 34.389 255.516 34.217C255.516 34.1883 255.545 34.1167 255.602 34.002C255.975 33.314 256.29 32.7263 256.548 32.239C256.806 31.7517 257.15 31.379 257.58 31.121C258.01 30.863 258.67 30.734 259.558 30.734C259.73 30.734 259.816 30.8057 259.816 30.949C259.816 31.1783 259.659 31.5653 259.343 32.11C259.028 32.6547 258.684 33.2137 258.311 33.787C257.939 34.3317 257.681 34.7187 257.537 34.948C257.308 35.292 257.036 35.7937 256.72 36.453C256.405 37.1123 256.133 37.7717 255.903 38.431C255.674 39.0617 255.559 39.5777 255.559 39.979C255.559 40.1223 255.588 40.2657 255.645 40.409C255.703 40.5237 255.817 40.581 255.989 40.581C256.362 40.581 256.835 40.366 257.408 39.936C257.982 39.4773 258.584 38.904 259.214 38.216C259.845 37.528 260.461 36.8113 261.063 36.066C261.665 35.292 262.181 34.5897 262.611 33.959C263.07 33.2997 263.4 32.7837 263.6 32.411C263.83 32.0097 263.987 31.594 264.073 31.164C264.159 30.7053 264.432 30.3327 264.89 30.046C265.091 29.9313 265.349 29.8167 265.664 29.702C265.98 29.5587 266.238 29.487 266.438 29.487C266.725 29.487 266.868 29.6303 266.868 29.917C266.868 30.3183 266.725 30.734 266.438 31.164C266.18 31.5653 265.951 31.938 265.75 32.282C265.492 32.7693 265.249 33.357 265.019 34.045C264.819 34.7043 264.632 35.3207 264.46 35.894C264.002 37.1553 263.557 38.431 263.127 39.721C262.726 40.9823 262.239 42.2437 261.665 43.505H262.525C262.755 43.505 262.97 43.5193 263.17 43.548C263.4 43.5767 263.514 43.6627 263.514 43.806C263.514 43.9493 263.357 44.0353 263.041 44.064C262.755 44.0927 262.439 44.0927 262.095 44.064C261.78 44.064 261.565 44.064 261.45 44.064C260.877 45.44 260.146 46.8447 259.257 48.278C258.397 49.74 257.38 51.073 256.204 52.277C255.058 53.5097 253.782 54.4987 252.377 55.244C250.944 55.9893 249.382 56.362 247.69 56.362ZM247.518 55.459C248.923 55.459 250.256 55.072 251.517 54.298C252.75 53.5527 253.882 52.5923 254.914 51.417C255.975 50.2417 256.907 48.9947 257.709 47.676C258.541 46.386 259.214 45.1963 259.73 44.107C258.125 44.2217 256.405 44.4653 254.57 44.838C252.736 45.2393 251.102 45.8127 249.668 46.558C248.952 46.902 248.163 47.375 247.303 47.977C246.415 48.579 245.655 49.267 245.024 50.041C244.365 50.8437 244.035 51.7037 244.035 52.621C244.035 53.5957 244.408 54.3123 245.153 54.771C245.87 55.2297 246.658 55.459 247.518 55.459ZM289.118 43.72C287.856 43.72 286.552 43.6053 285.205 43.376C283.886 43.1467 282.653 42.7453 281.507 42.172C280.389 41.6273 279.471 40.8533 278.755 39.85C278.067 38.8467 277.723 37.571 277.723 36.023C277.723 34.561 278.024 33.1133 278.626 31.68C279.228 30.2467 280.016 28.885 280.991 27.595C281.965 26.2763 283.026 25.0723 284.173 23.983C285.348 22.8937 286.495 21.9477 287.613 21.145C288.645 20.3997 289.72 19.726 290.838 19.124C291.984 18.522 293.145 17.9917 294.321 17.533C295.811 16.9597 297.316 16.5153 298.836 16.2C300.355 15.856 301.903 15.6267 303.48 15.512C303.537 15.4833 303.609 15.469 303.695 15.469C303.781 15.469 303.852 15.469 303.91 15.469C304.454 15.469 305.085 15.5407 305.802 15.684C306.518 15.7987 307.192 16.0137 307.823 16.329C308.482 16.6157 308.969 17.0027 309.285 17.49C309.457 17.2607 309.686 16.9023 309.973 16.415C310.288 15.9277 310.446 15.5693 310.446 15.34C310.446 15.1967 310.503 15.039 310.618 14.867C310.732 14.695 310.861 14.609 311.005 14.609C311.148 14.609 311.234 14.6807 311.263 14.824C311.291 14.9387 311.306 15.039 311.306 15.125C311.306 15.297 311.205 15.6123 311.005 16.071C310.833 16.5297 310.632 16.9883 310.403 17.447C310.173 17.877 310.016 18.1923 309.93 18.393C310.073 18.5937 310.231 18.8947 310.403 19.296C310.575 19.6973 310.661 20.0127 310.661 20.242C310.661 20.414 310.618 20.6433 310.532 20.93C310.446 21.188 310.317 21.36 310.145 21.446C310.145 21.446 310.059 21.274 309.887 20.93C309.715 20.5573 309.6 20.328 309.543 20.242C309.256 20.8153 308.926 21.5177 308.554 22.349C308.21 23.1803 307.808 23.8397 307.35 24.327C307.235 24.4417 307.092 24.5133 306.92 24.542C306.776 24.5707 306.633 24.585 306.49 24.585C306.404 24.585 306.203 24.5707 305.888 24.542C305.601 24.4847 305.314 24.413 305.028 24.327C304.77 24.241 304.641 24.155 304.641 24.069C304.641 23.8397 304.798 23.4957 305.114 23.037C305.429 22.5783 305.816 22.0767 306.275 21.532C306.733 20.9873 307.163 20.4713 307.565 19.984C307.966 19.468 308.253 19.081 308.425 18.823C307.909 17.9057 307.235 17.275 306.404 16.931C305.572 16.5583 304.655 16.372 303.652 16.372C303.566 16.372 303.48 16.372 303.394 16.372C303.308 16.372 303.222 16.3863 303.136 16.415C300.355 16.587 297.732 17.2177 295.267 18.307C294.235 18.7657 293.231 19.296 292.257 19.898C291.311 20.4713 290.379 21.102 289.462 21.79C288.458 22.5927 287.441 23.5387 286.409 24.628C285.377 25.6887 284.431 26.8497 283.571 28.111C282.739 29.3723 282.066 30.691 281.55 32.067C281.034 33.4143 280.776 34.7617 280.776 36.109C280.776 37.8003 281.191 39.1477 282.023 40.151C282.883 41.1543 283.972 41.871 285.291 42.301C286.638 42.731 288.043 42.946 289.505 42.946C291.683 42.946 293.848 42.6163 295.998 41.957C298.176 41.269 300.269 40.3803 302.276 39.291C304.311 38.173 306.174 36.9833 307.866 35.722C307.923 35.6647 307.995 35.6073 308.081 35.55C308.195 35.4927 308.296 35.464 308.382 35.464C308.468 35.464 308.511 35.507 308.511 35.593C308.511 35.8797 308.367 36.1377 308.081 36.367C307.679 36.7397 307.235 37.098 306.748 37.442C306.289 37.7573 305.816 38.0727 305.329 38.388C302.892 40.0507 300.326 41.355 297.632 42.301C294.937 43.247 292.099 43.72 289.118 43.72ZM318.428 42.344C317.654 42.344 317.138 42.043 316.88 41.441C316.651 40.8103 316.536 40.1797 316.536 39.549C316.536 38.7177 316.622 37.8863 316.794 37.055C316.966 36.2237 317.081 35.3923 317.138 34.561C316.794 34.991 316.307 35.6073 315.676 36.41C315.046 37.184 314.343 38.001 313.569 38.861C312.795 39.6923 312.036 40.3947 311.29 40.968C310.545 41.5413 309.9 41.828 309.355 41.828C308.295 41.828 307.764 41.269 307.764 40.151C307.764 39.4057 307.908 38.646 308.194 37.872C308.51 37.0693 308.868 36.2953 309.269 35.55C309.699 34.776 310.086 34.0737 310.43 33.443H310.344C310.172 33.443 310.086 33.3713 310.086 33.228C310.086 33.1707 310.086 33.1277 310.086 33.099C310.115 33.0703 310.129 33.0417 310.129 33.013C310.531 32.325 310.86 31.7373 311.118 31.25C311.376 30.734 311.72 30.347 312.15 30.089C312.58 29.831 313.24 29.702 314.128 29.702C314.272 29.702 314.343 29.788 314.343 29.96C314.343 30.1607 314.186 30.5477 313.87 31.121C313.555 31.6657 313.211 32.2103 312.838 32.755C312.466 33.2997 312.208 33.6867 312.064 33.916C311.835 34.2887 311.548 34.8477 311.204 35.593C310.86 36.3383 310.545 37.0837 310.258 37.829C310 38.5743 309.871 39.162 309.871 39.592C309.871 39.7353 309.886 39.8787 309.914 40.022C309.972 40.1367 310.086 40.194 310.258 40.194C310.545 40.194 310.875 40.065 311.247 39.807C311.62 39.5203 311.907 39.291 312.107 39.119C313.225 38.173 314.257 37.1123 315.203 35.937C316.149 34.733 317.009 33.5147 317.783 32.282C317.869 32.11 317.912 31.9523 317.912 31.809C317.998 31.465 318.127 31.1353 318.299 30.82C318.471 30.5047 318.701 30.2467 318.987 30.046C319.217 29.9027 319.532 29.788 319.933 29.702C320.335 29.616 320.65 29.573 320.879 29.573C320.994 29.573 321.137 29.6017 321.309 29.659C321.481 29.6877 321.567 29.7737 321.567 29.917C321.567 30.0603 321.438 30.2897 321.18 30.605C320.951 30.9203 320.693 31.2357 320.406 31.551C320.148 31.8377 319.962 32.0813 319.847 32.282C319.589 32.7407 319.36 33.4143 319.159 34.303C318.959 35.163 318.801 36.0373 318.686 36.926C318.572 37.8147 318.514 38.5457 318.514 39.119C318.514 39.4917 318.557 39.9073 318.643 40.366C318.729 40.8247 319.016 41.054 319.503 41.054C319.991 41.054 320.478 40.8677 320.965 40.495C321.481 40.0937 321.926 39.7067 322.298 39.334C322.671 38.9327 322.886 38.732 322.943 38.732C322.972 38.732 322.986 38.7607 322.986 38.818C322.986 39.076 322.843 39.377 322.556 39.721C322.27 40.065 321.954 40.3947 321.61 40.71C321.295 40.9967 321.051 41.2117 320.879 41.355C320.535 41.613 320.148 41.8423 319.718 42.043C319.288 42.2437 318.858 42.344 318.428 42.344ZM322.569 42.086C321.766 42.086 321.365 41.6703 321.365 40.839C321.365 40.4663 321.422 40.065 321.537 39.635C321.68 39.205 321.809 38.818 321.924 38.474C322.698 36.4673 323.644 34.3747 324.762 32.196C325.88 29.9887 327.069 27.8387 328.331 25.746C329.592 23.6247 330.825 21.6753 332.029 19.898C331.971 19.6687 331.943 19.468 331.943 19.296C331.943 19.1527 331.957 19.038 331.986 18.952C332.072 18.8373 332.229 18.5937 332.459 18.221C332.688 17.8483 332.917 17.49 333.147 17.146C333.405 16.7733 333.562 16.5583 333.62 16.501C333.763 16.329 334.035 16.2 334.437 16.114C334.867 16.028 335.196 15.985 335.426 15.985C335.569 15.985 335.784 16.0137 336.071 16.071C336.386 16.0997 336.544 16.2143 336.544 16.415C336.544 16.501 336.529 16.544 336.501 16.544C336.042 17.2033 335.569 17.877 335.082 18.565C334.623 19.2243 334.164 19.8837 333.706 20.543C332.043 23.037 330.481 25.5883 329.019 28.197C327.585 30.777 326.209 33.4 324.891 36.066C324.633 36.5533 324.346 37.1697 324.031 37.915C323.744 38.6603 323.601 39.3053 323.601 39.85C323.601 40.3947 323.816 40.667 324.246 40.667C324.618 40.667 325.034 40.538 325.493 40.28C325.951 40.022 326.381 39.7353 326.783 39.42C327.213 39.076 327.571 38.775 327.858 38.517C328.173 38.259 328.374 38.13 328.46 38.13C328.517 38.13 328.546 38.1873 328.546 38.302C328.546 38.4167 328.488 38.5743 328.374 38.775C328.288 38.947 328.202 39.0903 328.116 39.205C327.6 39.807 326.869 40.3803 325.923 40.925C324.977 41.4697 324.131 41.828 323.386 42C323.271 42.0287 323.142 42.043 322.999 42.043C322.855 42.0717 322.712 42.086 322.569 42.086ZM331.545 42C330.141 42 329.438 41.2833 329.438 39.85C329.438 38.99 329.639 38.0297 330.04 36.969C330.47 35.8797 330.958 34.8047 331.502 33.744C332.076 32.6833 332.549 31.7803 332.921 31.035C332.52 31.0637 332.047 31.1353 331.502 31.25C330.986 31.336 330.542 31.379 330.169 31.379C330.055 31.379 329.94 31.3647 329.825 31.336C329.739 31.2787 329.696 31.1927 329.696 31.078C329.696 30.906 329.782 30.7913 329.954 30.734C330.155 30.5907 330.356 30.4617 330.556 30.347C330.786 30.2323 331.001 30.1177 331.201 30.003C331.775 29.6303 332.319 29.229 332.835 28.799C333.38 28.3403 333.896 27.8673 334.383 27.38C334.498 27.1507 334.598 26.95 334.684 26.778C334.799 26.5773 335 26.434 335.286 26.348C335.516 26.2907 335.845 26.1617 336.275 25.961C336.705 25.7603 337.021 25.66 337.221 25.66C337.365 25.66 337.436 25.7173 337.436 25.832C337.436 25.918 337.336 26.1473 337.135 26.52C336.963 26.8927 336.748 27.3227 336.49 27.81C336.232 28.2687 335.989 28.6987 335.759 29.1C335.559 29.4727 335.43 29.702 335.372 29.788C335.544 29.788 335.845 29.788 336.275 29.788C336.734 29.788 337.221 29.8023 337.737 29.831C338.253 29.8597 338.698 29.917 339.07 30.003C339.443 30.089 339.629 30.2037 339.629 30.347C339.629 30.4617 339.543 30.5477 339.371 30.605C339.228 30.6337 339.07 30.648 338.898 30.648C338.21 30.648 337.522 30.6623 336.834 30.691C336.175 30.691 335.516 30.734 334.856 30.82C334.57 31.336 334.226 31.981 333.824 32.755C333.452 33.5003 333.065 34.303 332.663 35.163C332.291 35.9943 331.975 36.8113 331.717 37.614C331.459 38.388 331.33 39.0617 331.33 39.635C331.33 40.0077 331.402 40.3087 331.545 40.538C331.717 40.7673 332.004 40.882 332.405 40.882C332.807 40.882 333.251 40.753 333.738 40.495C334.226 40.237 334.684 39.936 335.114 39.592C335.573 39.2193 335.96 38.904 336.275 38.646C336.619 38.388 336.834 38.259 336.92 38.259C336.949 38.259 336.963 38.2733 336.963 38.302C336.963 38.4167 336.92 38.5457 336.834 38.689C336.777 38.8037 336.72 38.8897 336.662 38.947C336.29 39.4057 335.817 39.8787 335.243 40.366C334.67 40.8247 334.054 41.2117 333.394 41.527C332.764 41.8423 332.147 42 331.545 42ZM331.975 30.046C332.233 29.9887 332.477 29.96 332.706 29.96C332.964 29.9313 333.208 29.9027 333.437 29.874C333.523 29.6733 333.595 29.4727 333.652 29.272C333.71 29.0713 333.767 28.8707 333.824 28.67C333.509 28.8707 333.194 29.1 332.878 29.358C332.592 29.5873 332.291 29.8167 331.975 30.046ZM347.445 42.344C346.671 42.344 346.155 42.043 345.897 41.441C345.668 40.8103 345.553 40.1797 345.553 39.549C345.553 38.7177 345.639 37.8863 345.811 37.055C345.983 36.2237 346.098 35.3923 346.155 34.561C345.811 34.991 345.324 35.6073 344.693 36.41C344.062 37.184 343.36 38.001 342.586 38.861C341.812 39.6923 341.052 40.3947 340.307 40.968C339.562 41.5413 338.917 41.828 338.372 41.828C337.311 41.828 336.781 41.269 336.781 40.151C336.781 39.4057 336.924 38.646 337.211 37.872C337.526 37.0693 337.885 36.2953 338.286 35.55C338.716 34.776 339.103 34.0737 339.447 33.443H339.361C339.189 33.443 339.103 33.3713 339.103 33.228C339.103 33.1707 339.103 33.1277 339.103 33.099C339.132 33.0703 339.146 33.0417 339.146 33.013C339.547 32.325 339.877 31.7373 340.135 31.25C340.393 30.734 340.737 30.347 341.167 30.089C341.597 29.831 342.256 29.702 343.145 29.702C343.288 29.702 343.36 29.788 343.36 29.96C343.36 30.1607 343.202 30.5477 342.887 31.121C342.572 31.6657 342.228 32.2103 341.855 32.755C341.482 33.2997 341.224 33.6867 341.081 33.916C340.852 34.2887 340.565 34.8477 340.221 35.593C339.877 36.3383 339.562 37.0837 339.275 37.829C339.017 38.5743 338.888 39.162 338.888 39.592C338.888 39.7353 338.902 39.8787 338.931 40.022C338.988 40.1367 339.103 40.194 339.275 40.194C339.562 40.194 339.891 40.065 340.264 39.807C340.637 39.5203 340.923 39.291 341.124 39.119C342.242 38.173 343.274 37.1123 344.22 35.937C345.166 34.733 346.026 33.5147 346.8 32.282C346.886 32.11 346.929 31.9523 346.929 31.809C347.015 31.465 347.144 31.1353 347.316 30.82C347.488 30.5047 347.717 30.2467 348.004 30.046C348.233 29.9027 348.549 29.788 348.95 29.702C349.351 29.616 349.667 29.573 349.896 29.573C350.011 29.573 350.154 29.6017 350.326 29.659C350.498 29.6877 350.584 29.7737 350.584 29.917C350.584 30.0603 350.455 30.2897 350.197 30.605C349.968 30.9203 349.71 31.2357 349.423 31.551C349.165 31.8377 348.979 32.0813 348.864 32.282C348.606 32.7407 348.377 33.4143 348.176 34.303C347.975 35.163 347.818 36.0373 347.703 36.926C347.588 37.8147 347.531 38.5457 347.531 39.119C347.531 39.4917 347.574 39.9073 347.66 40.366C347.746 40.8247 348.033 41.054 348.52 41.054C349.007 41.054 349.495 40.8677 349.982 40.495C350.498 40.0937 350.942 39.7067 351.315 39.334C351.688 38.9327 351.903 38.732 351.96 38.732C351.989 38.732 352.003 38.7607 352.003 38.818C352.003 39.076 351.86 39.377 351.573 39.721C351.286 40.065 350.971 40.3947 350.627 40.71C350.312 40.9967 350.068 41.2117 349.896 41.355C349.552 41.613 349.165 41.8423 348.735 42.043C348.305 42.2437 347.875 42.344 347.445 42.344ZM350.381 42.645C350.181 42.645 350.095 42.5733 350.123 42.43C350.869 41.1113 351.528 39.764 352.101 38.388C352.675 36.9833 353.234 35.5787 353.778 34.174L354.251 32.927C354.251 32.841 354.18 32.8123 354.036 32.841C353.893 32.8697 353.821 32.8267 353.821 32.712C353.821 32.6547 353.936 32.4397 354.165 32.067C354.395 31.6657 354.638 31.2643 354.896 30.863C355.154 30.433 355.312 30.175 355.369 30.089C355.484 29.917 355.742 29.745 356.143 29.573C356.545 29.401 356.846 29.315 357.046 29.315C357.362 29.315 357.519 29.444 357.519 29.702C357.519 29.788 357.505 29.874 357.476 29.96C357.448 30.046 357.419 30.1177 357.39 30.175C356.96 31.207 356.487 32.239 355.971 33.271C355.484 34.2743 355.083 35.3207 354.767 36.41C355.599 35.4067 356.502 34.432 357.476 33.486C358.48 32.5113 359.497 31.6227 360.529 30.82C360.816 30.5907 361.131 30.3757 361.475 30.175C361.848 29.9743 362.221 29.874 362.593 29.874C363.052 29.874 363.339 30.046 363.453 30.39C363.568 30.7053 363.625 31.035 363.625 31.379C363.625 31.8377 363.482 32.325 363.195 32.841C362.909 33.357 362.493 33.615 361.948 33.615C361.719 33.615 361.604 33.529 361.604 33.357C361.604 33.2137 361.619 33.099 361.647 33.013C361.676 32.8983 361.69 32.7837 361.69 32.669C361.69 32.5257 361.633 32.3537 361.518 32.153C361.404 31.9523 361.275 31.852 361.131 31.852C360.759 31.852 360.257 32.0813 359.626 32.54C358.996 32.9987 358.336 33.5577 357.648 34.217C356.989 34.8763 356.387 35.5213 355.842 36.152C355.326 36.754 354.954 37.1983 354.724 37.485C354.409 37.9437 354.137 38.4167 353.907 38.904C353.678 39.3627 353.492 39.8357 353.348 40.323C353.291 40.495 353.234 40.6813 353.176 40.882C353.119 41.054 353.062 41.2117 353.004 41.355C352.947 41.4983 352.732 41.6847 352.359 41.914C351.987 42.1147 351.6 42.2867 351.198 42.43C350.826 42.5733 350.553 42.645 350.381 42.645ZM372.23 42.344C371.456 42.344 370.94 42.043 370.682 41.441C370.424 40.8103 370.295 40.1797 370.295 39.549C370.295 38.8323 370.352 38.1157 370.467 37.399C370.582 36.6823 370.711 35.98 370.854 35.292C370.567 35.7793 370.109 36.41 369.478 37.184C368.847 37.958 368.145 38.7463 367.371 39.549C366.597 40.323 365.809 40.9823 365.006 41.527C364.232 42.043 363.544 42.301 362.942 42.301C362.598 42.301 362.369 42.1863 362.254 41.957C362.168 41.7277 362.125 41.4697 362.125 41.183C362.125 40.581 362.268 39.8213 362.555 38.904C362.842 37.9867 363.243 37.0263 363.759 36.023C364.275 34.991 364.848 34.045 365.479 33.185C366.138 32.325 366.812 31.637 367.5 31.121C368.217 30.5763 368.933 30.3327 369.65 30.39C369.965 30.218 370.309 30.0603 370.682 29.917C371.055 29.7737 371.427 29.702 371.8 29.702C372.087 29.702 372.373 29.7307 372.66 29.788C372.975 29.8167 373.276 29.8597 373.563 29.917C373.706 29.8597 373.864 29.8023 374.036 29.745C374.208 29.6877 374.38 29.659 374.552 29.659C374.867 29.659 375.025 29.8023 375.025 30.089C375.025 30.2323 374.939 30.519 374.767 30.949C374.624 31.3503 374.452 31.7373 374.251 32.11C374.079 32.454 373.936 32.6547 373.821 32.712C373.563 33.228 373.319 33.9017 373.09 34.733C372.861 35.5357 372.674 36.367 372.531 37.227C372.388 38.087 372.316 38.818 372.316 39.42C372.316 39.7353 372.359 40.0937 372.445 40.495C372.56 40.8677 372.832 41.054 373.262 41.054C373.749 41.054 374.237 40.8677 374.724 40.495C375.24 40.0937 375.684 39.7067 376.057 39.334C376.43 38.9327 376.645 38.732 376.702 38.732C376.759 38.732 376.788 38.7607 376.788 38.818C376.788 39.076 376.645 39.377 376.358 39.721C376.071 40.065 375.756 40.3947 375.412 40.71C375.068 40.9967 374.81 41.2117 374.638 41.355C374.294 41.613 373.907 41.8423 373.477 42.043C373.076 42.2437 372.66 42.344 372.23 42.344ZM364.447 40.839C364.59 40.839 364.762 40.7817 364.963 40.667C365.164 40.5237 365.321 40.409 365.436 40.323C367.156 39.0903 368.503 37.6713 369.478 36.066C370.453 34.4607 371.399 32.7407 372.316 30.906C372.201 30.8487 372.072 30.8057 371.929 30.777C371.786 30.7483 371.642 30.734 371.499 30.734C370.954 30.734 370.41 30.8773 369.865 31.164C369.349 31.4507 368.919 31.7947 368.575 32.196C368.03 32.7693 367.471 33.529 366.898 34.475C366.353 35.3923 365.852 36.3527 365.393 37.356C364.934 38.3307 364.59 39.205 364.361 39.979C364.332 40.065 364.304 40.151 364.275 40.237C364.246 40.323 364.232 40.4233 364.232 40.538C364.232 40.7387 364.304 40.839 364.447 40.839Z" fill="#3E2014"/>
</svg>
